HIERARCHY
ROOT Hips
{
	OFFSET 0.000000 0.000000 0.000000
	CHANNELS 6 Xposition Yposition Zposition Zrotation Yrotation Xrotation 
	JOINT LHipJoint
	{
		OFFSET 0.000000 0.000000 0.000000
		CHANNELS 3 Zrotation Yrotation Xrotation
		JOINT LeftUpLeg
		{
			OFFSET 1.363060 -1.794630 0.839290
			CHANNELS 3 Zrotation Yrotation Xrotation
			JOINT LeftLeg
			{
				OFFSET 2.448110 -6.726130 0.000000
				CHANNELS 3 Zrotation Yrotation Xrotation
				JOINT LeftFoot
				{
					OFFSET 2.562200 -7.039590 0.000000
					CHANNELS 3 Zrotation Yrotation Xrotation
					JOINT LeftToeBase
					{
						OFFSET 0.157640 -0.433110 2.322550
						CHANNELS 3 Zrotation Yrotation Xrotation
						End Site
						{
							OFFSET 0.000000 0.000000 0.000000
						}
					}
				}
			}
		}
	}
	JOINT RHipJoint
	{
		OFFSET 0.000000 0.000000 0.000000
		CHANNELS 3 Zrotation Yrotation Xrotation
		JOINT RightUpLeg
		{
			OFFSET -1.305520 -1.794630 0.839290
			CHANNELS 3 Zrotation Yrotation Xrotation
			JOINT RightLeg
			{
				OFFSET -2.542530 -6.985550 0.000000
				CHANNELS 3 Zrotation Yrotation Xrotation
				JOINT RightFoot
				{
					OFFSET -2.568260 -7.056230 0.000000
					CHANNELS 3 Zrotation Yrotation Xrotation
					JOINT RightToeBase
					{
						OFFSET -0.164730 -0.452590 2.363150
						CHANNELS 3 Zrotation Yrotation Xrotation
						End Site
						{
							OFFSET 0.000000 0.000000 0.000000
						}
					}
				}
			}
		}
	}
}
MOTION
Frames: 33
Frame Time: 0.008333
3.298791 17.376347 1.603756 -164.659217 87.385536 -140.341660 -9.849902 -1.963561 -0.074188 -5.227406 -7.590494 -44.330418 -0.632969 1.413564 38.135566 2.841942 13.932418 -10.516781 -0.280800 0.000000 -11.292499 7.574605 -0.274668 -0.201076 12.034946 4.753839 -19.106380 3.456607 2.072965 -3.324016 -0.152944 -0.074617 -2.759631 -0.400100 0.000000 -4.822100
3.411536 17.372768 1.613543 -165.934498 87.444811 -141.655541 -9.751443 -1.961564 0.004160 -5.417878 -7.489455 -44.661466 -0.769343 1.285237 36.196340 2.713155 13.141487 -10.165034 -0.171200 0.000001 -11.636801 7.595766 -0.275466 -0.232844 11.965690 4.799776 -18.610792 3.422093 2.070692 -3.204458 -0.196395 -0.178168 -3.234059 -0.386400 -0.000000 -4.905200
3.524814 17.368247 1.621976 -167.117829 87.513290 -142.876223 -9.655211 -1.959771 0.082140 -5.599568 -7.389675 -44.957792 -0.912005 1.150002 34.211602 2.574339 12.315901 -9.806830 -0.071100 0.000001 -12.025900 7.615361 -0.275003 -0.260771 11.886910 4.882356 -18.096984 3.383955 2.069832 -3.098280 -0.244963 -0.304006 -3.724585 -0.372100 -0.000000 -4.992700
3.638628 17.362850 1.628993 -168.214203 87.590030 -144.012052 -9.561822 -1.959489 0.161735 -5.763118 -7.302189 -45.211382 -1.059211 1.006783 32.184202 2.427675 11.467735 -9.447123 0.017700 0.000000 -12.480400 7.633302 -0.273143 -0.289554 11.804754 4.985010 -17.562700 3.344448 2.069805 -3.000216 -0.296059 -0.435728 -4.233299 -0.354800 0.000000 -5.064000
3.753031 17.356574 1.634522 -169.200956 87.674244 -145.044032 -9.472195 -1.962273 0.244335 -5.899283 -7.233406 -45.416180 -1.208389 0.854883 30.119122 2.275926 10.612395 -9.086317 0.095200 0.000000 -13.017400 7.649514 -0.270225 -0.323927 11.726861 5.088931 -17.007526 3.306239 2.069707 -2.903075 -0.346611 -0.555443 -4.759103 -0.332600 -0.000001 -5.107099
3.868076 17.349321 1.638468 -170.011383 87.763593 -145.908943 -9.387548 -1.969876 0.331299 -5.999802 -7.184508 -45.569987 -1.356233 0.694037 28.025079 2.122043 9.766451 -8.720532 0.162400 0.000000 -13.636300 7.664092 -0.267779 -0.366701 11.662089 5.176443 -16.434764 3.272116 2.068350 -2.798182 -0.393562 -0.646563 -5.298060 -0.304500 -0.000000 -5.121800
3.983792 17.341021 1.640807 -170.593249 87.859343 -146.561498 -9.309272 -1.983822 0.419308 -6.063880 -7.147243 -45.665904 -1.499958 0.525275 25.911177 1.968891 8.947106 -8.342602 0.221300 -0.000000 -14.341899 7.677288 -0.265995 -0.423329 11.615400 5.229204 -15.840520 3.244212 2.064297 -2.678137 -0.433905 -0.693769 -5.844644 -0.270500 -0.000000 -5.109800
4.100275 17.331559 1.641482 -170.849402 87.960731 -146.908487 -9.238996 -2.005363 0.505820 -6.093914 -7.108280 -45.706383 -1.636907 0.350395 23.792473 1.818800 8.167901 -7.943743 0.274100 -0.000001 -15.107800 7.689319 -0.266395 -0.495570 11.592223 5.233373 -15.228076 3.224575 2.056332 -2.534792 -0.465268 -0.685394 -6.393774 -0.231300 0.000000 -5.080900
4.217792 17.320662 1.640437 -170.635054 88.065150 -146.803675 -9.178045 -2.035378 0.589985 -6.096281 -7.050067 -45.707036 -1.765391 0.171530 21.687546 1.673348 7.436990 -7.514949 0.323100 0.000000 -15.896200 7.700572 -0.272096 -0.579216 11.595958 5.186816 -14.609994 3.214277 2.043481 -2.359815 -0.486907 -0.618769 -6.940946 -0.188800 -0.000000 -5.065500
4.336538 17.308192 1.637699 -169.818755 88.172917 -146.114212 -9.127316 -2.074034 0.667513 -6.085709 -6.949672 -45.681221 -1.885687 -0.008264 19.615831 1.532868 6.755735 -7.049083 0.369400 0.000001 -16.670600 7.711612 -0.284713 -0.670628 11.624431 5.093537 -13.994189 3.213084 2.025085 -2.148640 -0.499180 -0.497021 -7.483317 -0.145000 0.000000 -5.093000
4.456493 17.294123 1.633402 -168.377356 88.284267 -144.823527 -9.086316 -2.120439 0.731116 -6.084196 -6.786920 -45.630272 -1.999676 -0.185538 17.595601 1.396605 6.119472 -6.542525 0.413400 -0.000000 -17.398200 7.724883 -0.303665 -0.771665 11.671075 4.946293 -13.376236 3.220441 2.000085 -1.896992 -0.501734 -0.317442 -8.023202 -0.101401 0.000000 -5.158499
4.578099 17.278253 1.627667 -166.056747 88.395432 -142.663813 -9.053191 -2.174134 0.781082 -6.106928 -6.543027 -45.587865 -2.110637 -0.358419 15.648545 1.262700 5.512958 -5.998051 0.454000 -0.000000 -18.044300 7.741833 -0.332100 -0.867709 11.730163 4.778408 -12.777681 3.233606 1.969051 -1.605858 -0.499053 -0.105316 -8.561510 -0.060300 -0.000001 -5.307700
4.701293 17.260687 1.620671 -162.793006 88.504473 -139.574048 -9.023407 -2.233015 0.812639 -6.171818 -6.212986 -45.554820 -2.222115 -0.525182 13.788151 1.129560 4.922994 -5.425010 0.488700 -0.000000 -18.591901 7.767420 -0.367854 -0.959746 11.791353 4.589275 -12.194290 3.250881 1.931451 -1.274396 -0.491895 0.136899 -9.104427 -0.022500 0.000000 -5.532800
4.826226 17.241459 1.612678 -158.359570 88.606561 -135.321605 -8.989552 -2.294506 0.826411 -6.284653 -5.804067 -45.540679 -2.337053 -0.686055 12.023229 0.996203 4.337060 -4.840001 0.514700 -0.000000 -19.031900 7.807872 -0.409347 -1.043214 11.845550 4.393041 -11.631767 3.269761 1.887461 -0.904191 -0.482707 0.396227 -9.656212 0.011200 -0.000000 -5.848700
4.953043 17.220547 1.603841 -152.010146 88.687921 -129.148955 -8.939446 -2.355693 0.824229 -6.438949 -5.321126 -45.565839 -2.458739 -0.841770 10.371205 0.860392 3.731462 -4.271985 0.527099 0.000000 -19.360500 7.871931 -0.455308 -1.105710 11.892730 4.233019 -11.095510 3.286336 1.839216 -0.508516 -0.477734 0.637460 -10.222095 0.040500 -0.000001 -6.229900
5.081650 17.198153 1.594364 -143.021547 88.739563 -120.334064 -8.856155 -2.406447 0.811167 -6.612495 -4.801110 -45.614463 -2.585317 -0.994117 8.823496 0.725311 3.114624 -3.750165 0.524100 0.000000 -19.585200 7.973888 -0.495902 -1.154232 11.928327 4.099674 -10.577485 3.299840 1.787755 -0.085718 -0.475475 0.867755 -10.802021 0.065900 0.000000 -6.689400
5.211965 17.174389 1.584413 -129.786615 88.744952 -107.267207 -8.720390 -2.428117 0.796796 -6.767280 -4.274202 -45.679894 -2.712161 -1.142743 7.373546 0.595375 2.496762 -3.311456 0.505100 -0.000000 -19.716900 8.126874 -0.514972 -1.191869 11.954251 4.005977 -10.069068 3.309102 1.738251 0.362431 -0.475821 1.084359 -11.390969 0.087700 -0.000000 -7.220400
5.343996 17.149263 1.573899 -110.088278 88.671783 -87.726263 -8.531194 -2.392389 0.796245 -6.859323 -3.751803 -45.766598 -2.829141 -1.280146 6.017123 0.476993 1.889890 -2.997798 0.470100 0.000001 -19.773500 8.318359 -0.486050 -1.222221 11.971643 3.990907 -9.550804 3.312959 1.704000 0.829581 -0.480726 1.274698 -11.984020 0.107500 0.000001 -7.755700
5.477557 17.122824 1.562809 -85.653024 88.486944 -63.441676 -8.357733 -2.302312 0.828190 -6.872369 -3.272383 -45.849943 -2.918604 -1.396096 4.734086 0.379982 1.331732 -2.837183 0.423200 -0.000000 -19.775400 8.466716 -0.400424 -1.264252 11.945174 4.046534 -8.998497 3.312686 1.693855 1.318825 -0.487816 1.457502 -12.575378 0.126000 0.000001 -8.309600
5.612566 17.094977 1.550875 -63.908675 88.195488 -41.840557 -8.288325 -2.232928 0.889170 -6.814095 -2.893983 -45.898715 -2.973803 -1.494305 3.539012 0.303101 0.827996 -2.831423 0.369000 0.000001 -19.750200 8.488669 -0.308875 -1.318348 11.855622 4.160251 -8.408348 3.308242 1.696020 1.798915 -0.502986 1.609192 -13.176028 0.144800 0.000000 -8.820599
5.748829 17.065714 1.537994 -49.225434 87.878821 -27.304802 -8.300645 -2.233885 0.959364 -6.659313 -2.673663 -45.861649 -2.999755 -1.590985 2.450430 0.241612 0.386536 -2.955974 0.314800 0.000000 -19.715200 8.429916 -0.256189 -1.382987 11.733297 4.266441 -7.786019 3.301998 1.687560 2.246587 -0.524320 1.733043 -13.777450 0.162400 0.000000 -9.390900
5.886457 17.034807 1.523644 -40.510386 87.559722 -18.741565 -8.329384 -2.286392 1.026970 -6.372139 -2.579158 -45.751225 -3.002422 -1.686813 1.506834 0.190584 -0.010724 -3.189875 0.262900 0.000000 -19.706100 8.361707 -0.238152 -1.445466 11.636247 4.386213 -7.128983 3.295450 1.667382 2.646608 -0.554239 1.807820 -14.376541 0.180900 -0.000001 -9.901400
6.025348 17.002085 1.507642 -35.487748 87.235715 -13.887803 -8.347000 -2.357812 1.090297 -5.948887 -2.582143 -45.561191 -2.981087 -1.773169 0.719018 0.151777 -0.346965 -3.492780 0.217600 0.000000 -19.745600 8.313352 -0.235382 -1.515138 11.576519 4.489930 -6.425084 3.291503 1.639358 3.011408 -0.585369 1.867280 -14.954524 0.198301 -0.000001 -10.440299
6.165671 16.967352 1.489642 -32.729299 86.899788 -11.317953 -8.354081 -2.430517 1.148047 -5.411460 -2.647029 -45.308122 -2.937384 -1.840037 0.106824 0.124689 -0.614154 -3.807914 0.181100 -0.000000 -19.861300 8.284669 -0.239153 -1.593523 11.556201 4.570198 -5.675026 3.291982 1.607631 3.348987 -0.614729 1.927595 -15.507845 0.213599 -0.000000 -10.996300
6.307566 16.930449 1.469470 -31.261062 86.554869 -10.060850 -8.359592 -2.495242 1.197365 -4.800501 -2.746645 -45.005423 -2.874959 -1.879519 -0.316023 0.108449 -0.798417 -4.063381 0.155300 0.000000 -20.077100 8.270276 -0.247162 -1.682483 11.562901 4.608437 -4.885739 3.297924 1.573037 3.670226 -0.638443 2.009542 -16.031687 0.224200 0.000000 -11.633499
6.451321 16.891322 1.447111 -30.474172 86.203460 -9.501139 -8.372689 -2.546380 1.237123 -4.157735 -2.858404 -44.675960 -2.798151 -1.886487 -0.543861 0.102264 -0.880758 -4.179086 0.142300 0.000000 -20.414700 8.264384 -0.259709 -1.776983 11.581883 4.606329 -4.076953 3.309059 1.536075 3.988247 -0.656074 2.120513 -16.536852 0.229400 -0.000000 -12.314300
6.596879 16.850047 1.422824 -29.911674 85.861354 -9.188486 -8.399864 -2.578324 1.262388 -3.542090 -2.965261 -44.332430 -2.713403 -1.856026 -0.564039 0.103731 -0.855072 -4.080052 0.143100 0.000000 -20.897900 8.267819 -0.277417 -1.882975 11.584990 4.518236 -3.257553 3.325408 1.494318 4.313561 -0.660486 2.292517 -17.002950 0.223100 -0.000001 -13.270699
6.744651 16.806835 1.396916 -29.297219 85.525731 -8.825814 -8.446045 -2.587658 1.275921 -2.989280 -3.049910 -44.013212 -2.624408 -1.787925 -0.387598 0.112668 -0.704941 -3.695304 0.161400 -0.000000 -21.541000 8.276239 -0.300232 -1.985417 11.554334 4.384551 -2.463485 3.343816 1.448771 4.661895 -0.656629 2.507581 -17.454269 0.207200 0.000000 -14.377400
6.894710 16.762171 1.369998 -28.412960 85.206805 -8.188864 -8.512964 -2.571214 1.275501 -2.549854 -3.093356 -43.747451 -2.536929 -1.681694 -0.011860 0.126593 -0.441735 -2.975756 0.200600 -0.000000 -22.357500 8.290885 -0.327706 -2.080573 11.464585 4.201867 -1.714636 3.361627 1.398245 5.044400 -0.643426 2.768762 -17.884530 0.180200 0.000000 -15.738200
7.046982 16.716693 1.342796 -27.163389 84.910656 -7.171262 -8.600096 -2.528768 1.258113 -2.270732 -3.064851 -43.577435 -2.457597 -1.538337 0.573182 0.141341 -0.103452 -1.900828 0.263099 0.000000 -23.345800 8.311484 -0.359339 -2.158612 11.300979 3.995272 -1.032032 3.375418 1.343034 5.469817 -0.624598 3.057967 -18.303061 0.143799 0.000000 -17.277900
7.201408 16.671247 1.316136 -25.491438 84.645088 -5.705625 -8.704983 -2.462601 1.220984 -2.189400 -2.938893 -43.540700 -2.391600 -1.360813 1.376206 0.153528 0.262423 -0.482938 0.348500 -0.000000 -24.469100 8.338283 -0.395301 -2.211585 11.053906 3.787535 -0.432507 3.381836 1.282686 5.944334 -0.603287 3.354128 -18.706861 0.100800 0.000000 -18.996700
7.357642 16.626796 1.290807 -23.404661 84.418164 -3.791192 -8.823249 -2.378059 1.161794 -2.328932 -2.696644 -43.670088 -2.342666 -1.153781 2.407373 0.160328 0.599828 1.223532 0.449400 -0.000000 -25.637900 8.371034 -0.436634 -2.232529 10.723862 3.604531 0.072045 3.378056 1.216531 6.471457 -0.583455 3.629220 -19.090536 0.055900 -0.000000 -20.866000
7.515316 16.584409 1.267454 -20.971498 84.236932 -1.488566 -8.948637 -2.282692 1.080572 -2.686993 -2.337660 -43.985027 -2.311164 -0.923731 3.670603 0.161051 0.862668 3.122414 0.551600 0.000001 -26.706100 8.408794 -0.484929 -2.216778 10.324080 3.474163 0.476206 3.362430 1.143972 7.052683 -0.569868 3.851421 -19.452547 0.015400 -0.000000 -22.764501
